<?xml version="1.0" standalone="no"?>
<!DOCTYPE svg PUBLIC "-//W3C//DTD SVG 20010904//EN"
 "http://www.w3.org/TR/2001/REC-SVG-20010904/DTD/svg10.dtd">
<svg version="1.0" xmlns="http://www.w3.org/2000/svg"
 width="512.000000pt" height="512.000000pt" viewBox="0 0 512.000000 512.000000"
 preserveAspectRatio="xMidYMid meet">

<g transform="translate(0.000000,512.000000) scale(0.100000,-0.100000)"
fill="#000000" stroke="none">
<path d="M3812 4125 c-90 -45 -181 -140 -228 -239 -19 -39 -34 -76 -34 -83 0
-17 -4 -17 -176 12 -201 33 -415 61 -614 82 -210 21 -817 24 -1025 5 -341 -32
-603 -70 -728 -107 -495 -144 -860 -539 -980 -1060 -20 -86 -21 -125 -24 -867
-4 -868 -8 -820 65 -876 l35 -27 337 0 337 0 35 27 c65 50 68 65 68 355 l0
259 38 38 c37 35 42 37 97 34 l59 -3 68 -310 c76 -342 84 -360 161 -390 36
-14 79 -16 278 -13 l236 3 35 27 c19 15 43 43 53 63 16 35 16 54 0 351 -9 173
-14 318 -11 323 3 4 23 11 45 15 22 3 94 22 162 41 67 20 123 34 124 33 2 -2
-10 -35 -26 -73 -70 -176 -111 -377 -113 -561 -1 -116 0 -122 26 -156 48 -63
69 -68 315 -68 235 0 282 6 318 40 13 12 61 92 106 176 50 94 85 150 90 142 3
-7 9 -57 12 -111 7 -110 23 -152 73 -197 55 -47 88 -51 412 -48 293 3 297 3
330 26 39 28 72 89 72 132 0 50 -23 89 -134 223 l-106 129 2 411 3 411 120 50
120 50 340 7 c270 5 352 10 396 23 206 60 375 198 464 380 76 154 92 264 48
325 -11 14 -69 60 -131 101 l-111 75 -76 190 c-42 105 -86 201 -98 214 -34 37
-68 47 -286 82 l-203 34 -68 135 c-70 138 -94 171 -143 189 -49 19 -92 12
-165 -24z"/>
</g>
</svg>
