<?xml version="1.0" standalone="no"?>
<!DOCTYPE svg PUBLIC "-//W3C//DTD SVG 20010904//EN"
 "http://www.w3.org/TR/2001/REC-SVG-20010904/DTD/svg10.dtd">
<svg version="1.0" xmlns="http://www.w3.org/2000/svg"
 width="512.000000pt" height="512.000000pt" viewBox="0 0 512.000000 512.000000"
 preserveAspectRatio="xMidYMid meet">

<g transform="translate(0.000000,512.000000) scale(0.100000,-0.100000)"
fill="#000000" stroke="none">
<path d="M2870 5105 c-205 -46 -372 -209 -425 -412 -19 -73 -19 -212 0 -283
52 -195 210 -353 405 -405 72 -19 211 -19 284 0 179 47 331 188 392 363 123
353 -132 730 -506 748 -53 2 -109 -2 -150 -11z"/>
<path d="M3360 3893 c-31 -11 -70 -58 -76 -90 -4 -23 0 -44 13 -70 61 -117 74
-261 34 -383 -38 -118 -21 -177 59 -201 53 -16 107 10 134 65 79 161 76 412
-5 583 -41 85 -96 119 -159 96z"/>
<path d="M2662 3821 c-57 -36 -72 -73 -72 -181 0 -190 -32 -366 -86 -472 -14
-27 -61 -88 -105 -135 -213 -226 -293 -353 -554 -878 -225 -455 -298 -578
-428 -726 -115 -131 -236 -227 -429 -341 -51 -29 -75 -78 -63 -126 7 -30 890
-923 937 -948 70 -37 123 -4 176 108 51 108 106 170 185 207 74 35 131 47 479
106 457 76 750 146 884 210 158 76 260 256 253 447 -2 55 2 69 29 112 52 81
67 139 67 251 0 93 -3 106 -31 164 -29 58 -30 65 -19 99 12 34 17 37 85 54 81
20 127 45 165 90 80 95 82 233 5 394 -144 299 -628 461 -1189 397 -53 -6 -53
-6 -46 18 3 13 46 105 95 204 106 216 130 289 137 415 9 172 -42 315 -157 431
-78 78 -142 112 -225 117 -47 2 -67 -1 -93 -17z"/>
<path d="M3711 3576 c-19 -6 -44 -24 -55 -39 -19 -25 -21 -40 -18 -140 2 -78
-2 -130 -13 -172 -33 -125 -122 -229 -253 -298 -84 -44 -102 -66 -102 -124 0
-55 39 -101 92 -110 30 -4 52 2 110 29 233 112 380 328 395 583 8 130 -2 200
-35 236 -34 37 -77 50 -121 35z"/>
</g>
</svg>
