<?xml version="1.0" standalone="no"?>
<!DOCTYPE svg PUBLIC "-//W3C//DTD SVG 20010904//EN"
 "http://www.w3.org/TR/2001/REC-SVG-20010904/DTD/svg10.dtd">
<svg version="1.0" xmlns="http://www.w3.org/2000/svg"
 width="512.000000pt" height="512.000000pt" viewBox="0 0 512.000000 512.000000"
 preserveAspectRatio="xMidYMid meet">

<g transform="translate(0.000000,512.000000) scale(0.100000,-0.100000)"
fill="#000000" stroke="none">
<path d="M4390 4956 c-116 -34 -147 -60 -336 -273 -216 -244 -190 -220 -212
-200 -28 26 -88 47 -132 47 -70 0 -155 -58 -179 -123 -17 -44 -13 -119 8 -160
l19 -37 -510 -577 c-281 -318 -525 -598 -544 -623 -18 -25 -43 -70 -54 -100
-35 -89 -38 -246 -5 -330 3 -10 -15 -39 -51 -80 -69 -80 -94 -130 -94 -195 0
-161 169 -267 315 -198 17 8 62 48 101 89 l70 76 105 2 c116 2 182 22 266 80
30 20 250 262 577 632 427 484 533 598 550 596 11 -2 47 -4 78 -5 48 -1 64 3
100 28 101 70 118 214 35 296 l-26 26 175 199 c188 212 227 272 244 378 37
229 -143 450 -378 462 -47 2 -94 -1 -122 -10z m-475 -1063 c201 -177 233 -209
222 -222 -6 -9 -131 -151 -276 -316 -145 -165 -267 -304 -271 -308 -4 -4 -80
127 -169 293 l-162 301 173 196 c95 107 186 211 201 229 16 19 33 34 38 34 6
0 115 -93 244 -207z"/>
<path d="M2045 4319 c-402 -52 -814 -241 -1125 -518 l-45 -40 346 -346 345
-346 50 41 c71 59 197 132 300 173 86 34 217 67 268 67 60 0 56 -32 56 496 l0
484 -62 -1 c-35 -1 -94 -6 -133 -10z"/>
<path d="M2390 3845 l0 -484 38 -6 c20 -3 62 -10 92 -15 50 -9 56 -8 76 12 12
13 158 178 324 368 167 190 312 355 323 367 l19 22 -58 29 c-200 100 -562 192
-759 192 l-55 0 0 -485z"/>
<path d="M705 3578 c-135 -161 -282 -416 -355 -618 -64 -176 -116 -434 -121
-600 l-2 -75 485 -3 486 -2 6 67 c21 203 102 411 220 566 l34 44 -347 346
-346 346 -60 -71z"/>
<path d="M3788 2815 l-366 -415 5 -47 c3 -27 6 -54 8 -60 4 -10 110 -13 491
-13 l487 0 -7 98 c-14 200 -58 408 -123 582 -45 119 -113 270 -123 270 -4 0
-172 -187 -372 -415z"/>
<path d="M2200 3200 c-103 -13 -188 -38 -289 -86 -123 -58 -200 -114 -297
-217 -122 -130 -200 -275 -240 -452 -23 -102 -24 -300 -2 -400 66 -295 252
-533 522 -665 158 -78 229 -94 426 -94 151 0 173 3 255 28 50 15 118 40 152
56 208 96 402 303 484 514 37 96 69 240 69 313 l0 53 -52 -33 c-105 -66 -199
-96 -313 -99 -65 -2 -66 -2 -102 -46 -144 -176 -418 -187 -566 -22 -134 149
-137 347 -7 504 33 39 39 53 33 75 -11 43 -8 192 6 251 19 79 74 189 127 255
25 31 44 58 42 60 -9 9 -188 13 -248 5z"/>
<path d="M234 2043 c13 -168 75 -424 143 -588 93 -224 274 -508 400 -627 l29
-28 343 344 344 344 -40 49 c-64 77 -102 138 -148 236 -46 96 -95 264 -95 323
l0 34 -491 0 -492 0 7 -87z"/>
<path d="M3425 2088 c-28 -179 -109 -372 -215 -513 -33 -44 -60 -82 -60 -85 0
-3 154 -160 343 -348 l344 -343 77 93 c283 337 444 726 490 1181 l6 57 -489 0
-489 0 -7 -42z"/>
<path d="M1251 1036 l-344 -344 78 -63 c330 -273 735 -436 1178 -474 l77 -7 0
489 0 489 -86 12 c-180 27 -397 118 -517 218 -16 13 -32 24 -35 24 -4 0 -162
-155 -351 -344z"/>
<path d="M2975 1339 c-117 -93 -357 -187 -520 -204 l-65 -7 0 -489 0 -489 23
0 c60 0 287 32 379 54 286 68 557 195 783 367 50 38 104 80 120 94 l30 25
-345 345 c-190 190 -347 345 -350 344 -3 0 -27 -18 -55 -40z"/>
</g>
</svg>
