<?xml version="1.0" standalone="no"?>
<!DOCTYPE svg PUBLIC "-//W3C//DTD SVG 20010904//EN"
 "http://www.w3.org/TR/2001/REC-SVG-20010904/DTD/svg10.dtd">
<svg version="1.0" xmlns="http://www.w3.org/2000/svg"
 width="512.000000pt" height="512.000000pt" viewBox="0 0 512.000000 512.000000"
 preserveAspectRatio="xMidYMid meet">

<g transform="translate(0.000000,512.000000) scale(0.100000,-0.100000)"
fill="#000000" stroke="none">
<path d="M2305 5062 c-146 -51 -243 -157 -274 -300 -8 -38 -11 -440 -11 -1399
0 -1072 -3 -1344 -12 -1340 -7 3 -49 22 -94 41 -215 95 -470 115 -706 56 -97
-25 -280 -111 -358 -170 -146 -109 -256 -242 -335 -405 -192 -392 -128 -852
163 -1184 129 -147 339 -275 537 -328 89 -23 118 -26 265 -26 145 0 176 3 261
25 211 57 348 136 500 287 52 53 114 125 138 161 89 137 148 296 170 454 7 52
11 480 11 1285 l0 1208 855 -213 c471 -118 871 -214 890 -214 201 0 377 153
406 353 11 82 11 824 -1 906 -20 138 -125 275 -245 320 -31 12 -489 129 -1018
261 -1034 258 -1037 258 -1142 222z"/>
</g>
</svg>
