<?xml version="1.0" standalone="no"?>
<!DOCTYPE svg PUBLIC "-//W3C//DTD SVG 20010904//EN"
 "http://www.w3.org/TR/2001/REC-SVG-20010904/DTD/svg10.dtd">
<svg version="1.0" xmlns="http://www.w3.org/2000/svg"
 width="512.000000pt" height="512.000000pt" viewBox="0 0 512.000000 512.000000"
 preserveAspectRatio="xMidYMid meet">

<g transform="translate(0.000000,512.000000) scale(0.100000,-0.100000)"
fill="#000000" stroke="none">
<path d="M2369 4950 c-143 -24 -257 -124 -301 -262 -17 -57 -18 -123 -18
-1354 l0 -1294 -37 19 c-151 77 -302 113 -473 113 -146 0 -239 -16 -367 -64
-371 -140 -629 -488 -659 -889 -16 -223 57 -475 191 -664 62 -88 209 -222 303
-279 370 -221 834 -189 1171 81 169 135 288 320 349 542 l27 96 3 1193 c1 751
6 1192 12 1192 5 0 371 -90 812 -201 755 -189 807 -200 871 -195 170 13 310
136 346 304 7 34 11 197 11 460 0 336 -3 418 -16 467 -29 113 -100 202 -200
251 -57 28 -1837 477 -1929 486 -27 3 -71 2 -96 -2z"/>
<path d="M3937 1613 l-227 -228 -225 225 -225 225 -180 -180 -180 -180 225
-225 225 -225 -227 -227 -228 -228 180 -180 180 -180 227 227 228 228 228
-228 227 -227 180 180 180 180 -223 223 c-122 122 -222 227 -222 232 0 5 100
110 222 232 l223 223 -180 180 -180 180 -228 -227z"/>
</g>
</svg>
