<?xml version="1.0" standalone="no"?>
<!DOCTYPE svg PUBLIC "-//W3C//DTD SVG 20010904//EN"
 "http://www.w3.org/TR/2001/REC-SVG-20010904/DTD/svg10.dtd">
<svg version="1.0" xmlns="http://www.w3.org/2000/svg"
 width="512.000000pt" height="512.000000pt" viewBox="0 0 512.000000 512.000000"
 preserveAspectRatio="xMidYMid meet">

<g transform="translate(0.000000,512.000000) scale(0.100000,-0.100000)"
fill="#000000" stroke="none">
<path d="M1047 5026 c-56 -21 -103 -61 -134 -114 l-28 -47 -3 -692 -3 -692
-182 -128 c-100 -70 -215 -159 -256 -198 -325 -307 -447 -797 -295 -1184 61
-153 177 -308 307 -409 87 -67 253 -148 348 -169 l79 -18 0 -464 c0 -335 -3
-475 -12 -505 -26 -86 -136 -166 -228 -166 -123 0 -240 116 -240 239 0 71 85
106 135 56 21 -20 25 -34 25 -80 l0 -55 80 0 80 0 0 56 c0 81 -18 129 -67 184
-95 105 -236 108 -339 5 -88 -87 -98 -202 -29 -341 42 -86 102 -144 193 -187
61 -29 76 -32 162 -32 86 0 101 3 162 32 93 44 151 100 196 191 l37 76 3 487
3 486 67 6 c247 24 466 156 603 365 87 133 123 258 124 427 0 97 -4 134 -22
190 -52 163 -175 309 -323 383 -234 117 -476 88 -633 -77 -135 -141 -173 -336
-96 -482 36 -67 68 -98 143 -137 43 -22 64 -26 136 -26 72 0 93 4 136 26 28
15 65 38 81 52 39 33 90 129 98 189 l7 47 -79 0 -79 0 -12 -44 c-29 -111 -169
-152 -257 -75 -43 38 -59 86 -51 156 35 296 403 379 648 145 104 -99 156 -236
145 -387 -19 -260 -200 -488 -452 -568 -56 -18 -93 -22 -190 -22 -169 1 -294
37 -427 124 -175 114 -287 272 -346 486 -26 92 -22 304 6 420 46 183 174 396
305 508 34 28 270 197 524 375 254 178 485 344 514 370 188 169 271 454 204
706 -62 237 -264 438 -500 501 -87 23 -221 29 -268 11z m217 -166 c105 -26
168 -63 247 -140 81 -80 123 -154 151 -262 46 -182 -4 -366 -136 -507 -42 -43
-462 -351 -481 -351 -3 0 -5 275 -5 611 l0 611 29 29 c36 36 82 38 195 9z"/>
<path d="M3365 5031 c-92 -24 -173 -90 -215 -176 -19 -41 -24 -66 -24 -135 -1
-78 2 -90 33 -148 38 -70 70 -101 145 -139 45 -23 66 -27 174 -31 l122 -4 0
-479 0 -479 80 0 81 0 -3 683 -3 682 -34 63 c-38 70 -70 101 -143 138 -54 27
-159 40 -213 25z"/>
<path d="M2480 4401 l0 -479 -122 -4 c-142 -5 -194 -24 -263 -93 -65 -65 -89
-125 -89 -225 -1 -78 2 -90 33 -148 38 -70 70 -100 145 -140 43 -22 64 -26
136 -26 72 0 93 4 136 26 75 39 107 70 145 140 l34 63 3 683 3 682 -81 0 -80
0 0 -479z"/>
<path d="M3948 4559 l-57 -51 70 -86 c138 -171 301 -442 380 -632 12 -30 23
-56 24 -58 1 -1 33 11 71 27 60 25 69 31 66 52 -5 45 -160 344 -249 479 -83
125 -225 312 -241 317 -4 1 -33 -20 -64 -48z"/>
<path d="M3881 4079 c-30 -22 -57 -41 -59 -43 -2 -2 19 -37 46 -77 27 -41 68
-109 91 -151 24 -43 47 -78 52 -78 21 0 129 61 129 73 0 28 -178 317 -195 316
-5 0 -35 -18 -64 -40z"/>
<path d="M2784 3933 c-21 -27 -42 -53 -47 -60 -5 -7 32 -51 110 -130 175 -174
285 -349 358 -566 54 -161 69 -266 69 -467 -1 -188 -12 -263 -61 -419 -15 -47
-27 -90 -28 -95 0 -15 139 -65 147 -52 17 30 61 182 80 281 32 157 32 433 0
590 -46 231 -141 455 -269 635 -67 93 -228 265 -290 308 l-31 22 -38 -47z"/>
<path d="M4080 3206 l0 -404 -122 -4 c-142 -5 -194 -24 -263 -93 -65 -65 -89
-125 -89 -225 -1 -78 2 -90 33 -148 38 -70 70 -100 145 -140 43 -22 64 -26
136 -26 72 0 93 4 136 26 75 39 107 70 145 140 l34 63 3 278 c3 204 7 277 15
277 7 0 145 -14 307 -30 162 -16 301 -30 308 -30 9 0 12 -31 12 -124 l0 -124
-122 -4 c-142 -5 -194 -24 -263 -93 -65 -65 -89 -125 -89 -225 -1 -78 2 -90
33 -148 38 -70 70 -100 145 -140 43 -22 64 -26 136 -26 72 0 93 4 136 26 75
39 107 70 145 140 l34 63 3 637 3 637 -33 6 c-18 3 -215 23 -438 45 -223 22
-424 42 -447 44 l-43 6 0 -404z m480 194 c162 -16 301 -30 308 -30 9 0 12 -39
12 -160 0 -88 -3 -160 -7 -160 -5 0 -141 14 -303 30 -162 16 -303 30 -312 30
-16 0 -18 14 -18 160 0 121 3 160 13 160 6 0 145 -14 307 -30z"/>
<path d="M2713 3279 l-63 -41 34 -61 c71 -126 116 -309 116 -466 0 -84 -22
-216 -50 -295 -11 -33 -17 -63 -13 -67 10 -9 135 -60 139 -56 1 1 14 38 29 82
71 216 71 474 0 689 -26 81 -111 256 -124 255 -3 0 -34 -18 -68 -40z"/>
<path d="M2320 1690 l0 -488 -122 -4 c-142 -5 -194 -24 -263 -93 -65 -65 -89
-125 -89 -225 -1 -78 2 -90 33 -148 38 -70 70 -100 145 -140 43 -22 64 -26
136 -26 72 0 93 4 136 26 75 39 107 70 145 140 l34 63 3 353 c2 193 6 352 10
352 4 0 184 -35 400 -79 l392 -78 0 322 0 322 -409 82 c-225 45 -441 88 -480
95 l-71 14 0 -488z"/>
<path d="M4123 2003 c-255 -722 -835 -1276 -1568 -1498 -49 -15 -91 -28 -92
-29 -1 -1 2 -18 7 -37 5 -19 14 -53 19 -75 l11 -42 93 28 c146 45 233 78 364
140 597 284 1057 778 1289 1383 19 49 34 92 34 96 0 6 -126 51 -144 51 -3 0
-9 -8 -13 -17z"/>
<path d="M4360 1698 c-96 -239 -243 -486 -414 -698 -85 -106 -294 -313 -406
-403 -138 -110 -301 -215 -455 -293 -74 -38 -135 -73 -135 -77 0 -17 55 -137
64 -137 22 0 284 144 400 220 480 316 863 774 1081 1294 25 59 45 113 45 120
0 11 -110 56 -136 56 -5 0 -25 -37 -44 -82z"/>
</g>
</svg>
