<?xml version="1.0" standalone="no"?>
<!DOCTYPE svg PUBLIC "-//W3C//DTD SVG 20010904//EN"
 "http://www.w3.org/TR/2001/REC-SVG-20010904/DTD/svg10.dtd">
<svg version="1.0" xmlns="http://www.w3.org/2000/svg"
 width="512.000000pt" height="512.000000pt" viewBox="0 0 512.000000 512.000000"
 preserveAspectRatio="xMidYMid meet">

<g transform="translate(0.000000,512.000000) scale(0.100000,-0.100000)"
fill="#000000" stroke="none">
<path d="M3982 5095 c-47 -24 -89 -67 -128 -131 -11 -18 -13 -18 -40 8 -16 15
-60 42 -99 60 -63 29 -81 33 -176 36 -123 5 -163 -9 -222 -78 -93 -109 -93
-330 -1 -729 45 -193 101 -400 163 -597 l47 -151 -75 -80 c-78 -82 -152 -195
-192 -295 l-23 -56 -216 -64 -215 -63 -785 -6 c-758 -5 -788 -6 -881 -27 -206
-47 -416 -136 -571 -244 -211 -147 -437 -391 -539 -584 -36 -70 -37 -131 0
-183 32 -45 64 -58 224 -95 l142 -32 2 -74 c9 -279 63 -468 188 -655 30 -46
55 -85 55 -88 0 -3 -35 -65 -77 -139 -71 -122 -78 -138 -78 -188 0 -37 6 -64
19 -82 22 -34 675 -524 724 -545 27 -11 71 -14 192 -11 152 3 158 4 192 30 92
70 89 192 -6 262 -23 18 -47 22 -151 26 l-124 5 -130 95 c-71 52 -130 98 -130
101 -1 4 32 10 72 14 152 14 196 26 412 113 254 103 320 135 393 189 60 46 46
43 386 64 170 11 199 11 207 -2 4 -8 129 -203 276 -434 321 -504 280 -465 503
-465 165 0 209 13 251 71 32 45 34 134 3 175 -44 59 -67 69 -182 74 l-106 5
-59 93 -60 93 -23 192 c-33 271 -40 241 64 262 342 67 687 266 924 531 142
159 265 367 338 571 32 92 33 93 74 103 151 39 302 135 391 248 67 85 109 172
150 311 45 152 43 178 -18 269 -148 224 -353 417 -564 534 -40 22 -73 42 -73
45 0 2 15 80 34 171 87 422 98 743 35 991 -60 234 -195 366 -388 378 -68 4
-81 2 -129 -22z"/>
</g>
</svg>
