<?xml version="1.0" encoding="iso-8859-1"?>
<!-- Generator: Adobe Illustrator 19.0.0, SVG Export Plug-In . SVG Version: 6.00 Build 0)  -->
<svg version="1.1" id="Layer_1" xmlns="http://www.w3.org/2000/svg" xmlns:xlink="http://www.w3.org/1999/xlink" x="0px" y="0px"
	 viewBox="0 0 512.002 512.002" style="enable-background:new 0 0 512.002 512.002;" xml:space="preserve">
<g>
	<g>
		<circle cx="128.197" cy="157.734" r="14.923"/>
	</g>
</g>
<g>
	<g>
		<path d="M317.51,283.11c-1.729-4.466-6.752-6.688-11.219-4.958c-9.339,3.614-18.167,8.479-26.242,14.458
			c-3.85,2.851-4.658,8.283-1.808,12.133c1.7,2.298,4.321,3.512,6.976,3.512c1.794,0,3.604-0.554,5.156-1.703
			c6.826-5.056,14.288-9.167,22.179-12.222C317.019,292.601,319.239,287.577,317.51,283.11z"/>
	</g>
</g>
<g>
	<g>
		<path d="M458.051,386.369c0.34-41.491-18.887-83.96-58.757-129.757c-30.138-34.62-67.8-57.568-112.248-68.463
			c-10.194-2.499-20.021-3.896-30.446-4.958c0.423,0.043,2.626-10.13,2.765-11.225c0.062-0.489,0.042-6.349,0.079-6.351
			c19.945-1.697,42.405-7.14,64.205-15.627c28.455-11.078,53.493-26.267,70.5-42.769c18.859-18.299,26.024-36.647,20.18-51.662
			c-5.808-14.921-23.311-23.575-49.305-24.402c-0.278-2.469-0.844-4.865-1.739-7.164C357.261,8.52,338.675,0,310.95,0
			c-22.367,0-49.105,5.614-75.291,15.808c-28.985,11.284-54.664,27.235-71.081,44.052c-4.975,0.851-10.038,2.034-15.181,3.559
			c-28.225,8.366-57.324,26.443-81.934,50.902c-3.398,3.377-3.414,8.869-0.038,12.267c3.378,3.398,8.869,3.415,12.267,0.038
			c22.281-22.144,49.484-39.121,74.634-46.574c9.338-2.768,19.098-4.453,28.853-4.453c14.829,0,28.188,3.962,39.803,11.786
			c0.076,0.051,0.151,0.103,0.228,0.155c2.313,1.587,4.555,3.929,7.31,4.866c2.673,0.909,5.725,0.556,8.019-1.13
			c0.014-0.01,0.029-0.016,0.043-0.027c5.609-4.132,11.427-7.976,17.44-11.496c10.392-6.08,21.861-11.597,33.941-16.3
			c0.083-0.032,0.167-0.062,0.249-0.095c23.374-9.071,48.589-15.591,73.835-14.885c18.3,0.51,31.054,5.51,34.115,13.372
			s-2.955,20.169-16.094,32.919c-15.382,14.927-38.364,28.795-64.713,39.054c-23.131,9.004-46.877,14.314-66.86,14.95
			c-4.68,0.148-8.398,3.986-8.398,8.669v12.454c-6.605,29.893-21.477,52.033-44.214,65.811
			c-19.355,11.729-44.511,16.923-70.844,14.625C81.394,246.345,42,220.894,40.876,194.707c0.057-11.559,6.159-26.658,17.198-42.544
			c2.733-3.933,1.76-9.339-2.173-12.071c-3.932-2.734-9.339-1.761-12.073,2.173c-13.28,19.111-20.3,37.303-20.3,52.605
			c0,0.108,0.002,0.214,0.006,0.32c1.288,34.794,40.67,60.735,83.214,69.633c-22.111,43.5-15.628,81.93-5.644,107.284
			c7.272,18.464,17.205,32.468,23.811,40.548c-28.237,20.332-42.5,42.71-39.39,62.289c3.178,20.005,23.811,28.704,42.019,28.704
			c14.63,0,31.384-4.481,48.642-13.157c23.685-11.907,47.62-31.438,69.835-56.885c1.188,2.258,2.452,4.468,3.811,6.614
			c-0.716,1.299-1.166,2.698-1.328,4.112c-6.889,5.624-13.093,13.167-15.706,22.103c-3.943,13.482,2.26,27.955,14.257,35.147
			c12.485,7.485,26.798,10.421,41.273,10.421c16.504-0.001,34.665-3.851,54.325-11.544c2.892-1.132,4.684-3.769,8.017-4.064
			c24.93-2.216,49.711-12.861,69.085-29.453c7.1,4.446,15.335,6.849,23.806,6.849c24.765,0,44.912-20.147,44.912-44.911
			C488.474,409.338,476.033,392.449,458.051,386.369z M347.259,31.712c-1.103,0.096-2.214,0.207-3.33,0.326
			c-0.09,0.01-0.18,0.02-0.271,0.03c-37,4.173-73.405,17.446-104.607,37.759c-0.043,0.028-0.082,0.056-0.125,0.083
			c-1.849,1.196-3.665,2.408-5.435,3.636c-12.159-8.408-26.39-13.471-41.089-14.878c13.644-10.098,30.792-19.393,49.549-26.695
			c24.23-9.432,48.733-14.626,68.999-14.626c19.494,0,33.014,4.835,36.167,12.935c0.177,0.456,0.324,0.922,0.438,1.401
			C347.458,31.691,347.358,31.704,347.259,31.712z M413.112,449.575c-17.158,16.618-40.35,27.364-63.674,29.513
			c-5.504,0.154-10.148,3.02-13.966,5.55c-30.088,11.616-55.501,13.135-75.558,4.514c-7.052-3.038-12.804-9.849-10.465-17.847
			c1.808-6.183,7.39-11.956,13.274-15.945c16.408,13.458,41.434,23.532,42.604,23.998c4.399,1.756,9.523-0.464,11.27-4.843
			c1.775-4.449-0.393-9.495-4.843-11.27c-7.869-3.139-30.564-13.614-41.587-24.472c-0.101-0.12-0.198-0.253-0.301-0.369
			c-7.252-8.164-11.306-17.316-14.361-27.434c-6.925-22.931-4.71-49.546,7.251-72.203c2.237-4.236,0.615-9.483-3.62-11.72
			c-4.235-2.237-9.483-0.615-11.72,3.62c-9.83,18.619-14.417,40.508-12.914,61.633c0.571,8.024,1.978,15.773,4.161,23.154
			c-30.443,36.633-74.783,71.051-109.981,71.045c-4.177,0-8.232-0.486-12.113-1.509c-5.656-1.493-12.661-4.919-13.908-12.766
			c-1.731-10.896,7.869-29.931,40.006-50.674c2.216-1.431,3.655-3.796,3.919-6.42c0.266-2.623-0.682-5.231-2.565-7.075
			c-0.168-0.164-16.836-16.681-27.005-42.895c-12.736-32.828-10.057-65.637,7.928-97.602c0.195,0.018,0.391,0.039,0.586,0.055
			c4.462,0.39,8.987,0.592,13.548,0.592c43.246-0.001,89.524-18.222,111.41-68.043c3.268-6.306,48.822,8.744,52.834,10.212
			c23.185,8.481,44.484,21.516,65.101,39.843c0.069,0.061,0.139,0.121,0.21,0.18c6.561,5.468,11.926,10.832,17.394,17.394
			c0.041,0.049,0.081,0.096,0.123,0.145c37.617,43.19,55.456,82.491,54.538,120.15c-0.001,0.071-0.002,0.141-0.002,0.212
			C440.686,411.597,429.656,433.553,413.112,449.575z M443.559,456.44c-3.63,0-7.191-0.717-10.494-2.079
			c6.702-8.083,12.218-17.044,16.407-26.585c1.845-4.118,3.41-8.376,4.708-12.714c1.026-3.429,1.884-6.907,2.58-10.403
			c8.667,4.701,14.364,13.854,14.364,24.218C471.124,444.075,458.759,456.44,443.559,456.44z"/>
	</g>
</g>
<g>
</g>
<g>
</g>
<g>
</g>
<g>
</g>
<g>
</g>
<g>
</g>
<g>
</g>
<g>
</g>
<g>
</g>
<g>
</g>
<g>
</g>
<g>
</g>
<g>
</g>
<g>
</g>
<g>
</g>
</svg>
