<?xml version="1.0" standalone="no"?>
<!DOCTYPE svg PUBLIC "-//W3C//DTD SVG 20010904//EN"
 "http://www.w3.org/TR/2001/REC-SVG-20010904/DTD/svg10.dtd">
<svg version="1.0" xmlns="http://www.w3.org/2000/svg"
 width="512.000000pt" height="512.000000pt" viewBox="0 0 512.000000 512.000000"
 preserveAspectRatio="xMidYMid meet">

<g transform="translate(0.000000,512.000000) scale(0.100000,-0.100000)"
fill="#000000" stroke="none">
<path d="M3802 4667 l-222 -222 155 -155 155 -155 -442 -6 c-400 -5 -451 -8
-528 -27 -157 -38 -285 -94 -430 -190 -111 -74 -325 -288 -410 -410 -36 -51
-265 -404 -508 -785 -244 -380 -466 -722 -493 -759 -78 -105 -205 -218 -292
-261 -119 -60 -173 -67 -499 -67 l-288 0 0 -321 0 -321 353 5 c309 4 362 7
437 25 311 74 573 257 795 554 44 59 283 423 530 810 248 386 475 736 506 778
108 145 243 252 382 303 60 21 77 22 477 25 l415 3 -157 -158 -158 -158 225
-225 225 -225 106 105 c58 58 303 303 546 544 l440 439 -539 539 c-296 296
-542 538 -548 538 -6 0 -110 -100 -233 -223z"/>
<path d="M0 3811 l0 -321 288 0 c327 0 383 -8 502 -67 107 -53 258 -207 360
-365 41 -64 79 -116 84 -114 5 1 92 131 193 289 l184 288 -63 77 c-220 273
-469 437 -763 504 -79 18 -133 21 -437 25 l-348 5 0 -321z"/>
<path d="M3802 2167 l-222 -222 158 -158 157 -158 -415 3 c-400 3 -417 4 -477
25 -164 60 -322 201 -453 405 -41 64 -79 116 -84 115 -7 -3 -230 -342 -346
-529 l-29 -47 59 -74 c210 -261 479 -439 770 -509 77 -19 125 -21 529 -25
l444 -5 -156 -156 -157 -157 223 -223 c122 -122 227 -222 232 -222 6 0 252
243 548 541 l537 542 -542 538 c-299 296 -545 539 -548 539 -3 0 -105 -100
-228 -223z"/>
</g>
</svg>
