<?xml version="1.0" encoding="iso-8859-1"?>
<!-- Generator: Adobe Illustrator 19.0.0, SVG Export Plug-In . SVG Version: 6.00 Build 0)  -->
<svg version="1.1" id="Capa_1" xmlns="http://www.w3.org/2000/svg" xmlns:xlink="http://www.w3.org/1999/xlink" x="0px" y="0px"
	 viewBox="0 0 512 512" style="enable-background:new 0 0 512 512;" xml:space="preserve">
<g>
	<g>
		<path d="M323.16,55.683c-5.061-6.69-12.04-11.391-20.181-13.571L150.66,1.29C147.479,0.44,144.21,0,140.93,0
			c-8.1,0-16.14,2.71-22.63,7.621c-6.69,5.07-11.38,12.051-13.57,20.191L63.91,180.14c-0.851,3.19-1.28,6.46-1.28,9.721
			c0,8.11,2.7,16.141,7.62,22.631c5.06,6.69,12.04,11.391,20.18,13.581l152.32,40.812c3.18,0.851,6.45,1.28,9.729,1.28l0.011-0.05
			v0.05c8.1,0,16.13-2.7,22.619-7.62c6.69-5.06,11.381-12.041,13.57-20.172c1.07-4-1.31-8.12-5.3-9.19
			c-0.64-0.17-1.29-0.26-1.95-0.26c-3.38,0-6.36,2.29-7.24,5.56c-2.62,9.82-11.55,16.681-21.71,16.691c-1.97,0-3.93-0.27-5.84-0.78
			L94.31,211.582c-9.819-2.62-16.68-11.55-16.68-21.721c0-1.96,0.26-3.92,0.77-5.84l40.82-152.329
			c2.61-9.82,11.54-16.681,21.71-16.691c1.96,0,3.93,0.26,5.85,0.78L299.1,56.593c9.811,2.62,16.67,11.551,16.68,21.721
			c0,1.96-0.26,3.93-0.77,5.84l-33.05,123.348c-0.521,1.94-0.26,3.96,0.75,5.69c1,1.74,2.62,2.98,4.55,3.5
			c0.64,0.17,1.29,0.26,1.95,0.26c3.38,0,6.359-2.29,7.24-5.56c0-0.01,0-0.01,0-0.02L329.5,88.035
			c0.85-3.18,1.279-6.451,1.279-9.721C330.779,70.204,328.08,62.173,323.16,55.683z"/>
	</g>
</g>
<g>
	<g>
		<path d="M448.09,423.975c-0.01,0-0.01-0.01-0.01-0.01c-0.88-3.27-3.851-5.55-7.24-5.55c-0.65,0-1.311,0.09-1.94,0.26
			c-1.939,0.51-3.55,1.76-4.55,3.49c-1.01,1.74-1.27,3.76-0.75,5.69c0.51,1.92,0.771,3.88,0.771,5.84
			c-0.011,10.171-6.87,19.101-16.681,21.721l-152.33,40.812c-1.909,0.51-3.88,0.77-5.84,0.78c-10.17-0.01-19.1-6.871-21.71-16.691
			l-40.82-152.328c-0.511-1.92-0.771-3.881-0.771-5.841c0-10.171,6.86-19.101,16.68-21.721l152.32-40.812
			c1.91-0.51,3.88-0.77,5.84-0.78c10.17,0.01,19.101,6.871,21.72,16.691l33.051,123.347c0.88,3.28,3.859,5.56,7.239,5.56
			c0.65,0,1.311-0.08,1.94-0.25c4-1.07,6.38-5.2,5.31-9.19c0,0,0-0.01-0.01-0.01l-33.04-123.337
			c-2.189-8.14-6.88-15.121-13.569-20.181c-6.49-4.92-14.521-7.631-22.641-7.631c-3.28,0-6.55,0.44-9.72,1.29l-152.32,40.812
			c-8.14,2.19-15.12,6.891-20.18,13.581c-4.92,6.491-7.62,14.531-7.62,22.631c0,3.28,0.43,6.551,1.29,9.731l40.81,152.329
			c2.19,8.13,6.881,15.111,13.57,20.181c6.49,4.91,14.521,7.611,22.62,7.611h0.01c3.271,0,6.54-0.43,9.721-1.28l152.329-40.812
			c8.141-2.19,15.12-6.89,20.181-13.58c4.91-6.491,7.62-14.521,7.62-22.632C449.37,430.425,448.939,427.155,448.09,423.975z"/>
	</g>
</g>
<g>
	<g>
		<path d="M376.092,315.042c-4.282-15.979-20.763-25.495-36.742-21.215c-7.74,2.074-14.21,7.039-18.217,13.979
			c-4.007,6.94-5.07,15.025-2.996,22.765c2.073,7.741,7.037,14.211,13.978,18.218c4.623,2.669,9.752,4.032,14.951,4.032
			c2.605,0,5.229-0.343,7.813-1.035C370.857,347.504,380.373,331.021,376.092,315.042z M350.996,337.295
			c-3.871,1.038-7.914,0.503-11.382-1.498c-3.469-2.003-5.952-5.238-6.989-9.109c-1.037-3.87-0.505-7.913,1.498-11.383
			c2.004-3.47,5.238-5.952,9.109-6.989c1.295-0.347,2.597-0.513,3.878-0.513c6.622,0,12.699,4.427,14.493,11.12
			C363.743,326.913,358.985,335.154,350.996,337.295z"/>
	</g>
</g>
<g>
	<g>
		<path d="M312.452,425.274c-4.282-15.979-20.761-25.497-36.743-21.214c-15.978,4.282-25.493,20.765-21.212,36.744
			c2.073,7.741,7.037,14.21,13.978,18.217c4.623,2.67,9.752,4.033,14.951,4.033c2.605,0,5.229-0.343,7.813-1.035
			C307.217,457.737,316.733,441.254,312.452,425.274z M287.356,447.529c-3.872,1.037-7.912,0.504-11.382-1.499
			c-3.47-2.004-5.952-5.238-6.989-9.108c-2.14-7.99,2.618-16.231,10.606-18.373c7.984-2.14,16.23,2.617,18.372,10.607
			C300.104,437.147,295.346,445.388,287.356,447.529z"/>
	</g>
</g>
<g>
	<g>
		<path d="M315.294,347.92c-16.542,0-30,13.459-30,30.002c0,16.543,13.458,30.002,30,30.002s30-13.459,30-30.002
			C345.294,361.379,331.836,347.92,315.294,347.92z M315.294,392.923c-8.271,0-15-6.729-15-15.001c0-8.271,6.729-15.001,15-15.001
			s15,6.729,15,15.001C330.294,386.193,323.565,392.923,315.294,392.923z"/>
	</g>
</g>
<g>
	<g>
		<path d="M190.867,63.97c-4.007-6.94-10.477-11.905-18.217-13.978c-15.975-4.281-32.46,5.235-36.742,21.215
			c-4.281,15.979,5.235,32.462,21.213,36.744c2.585,0.692,5.208,1.035,7.813,1.035c5.198,0,10.329-1.363,14.951-4.032
			c6.941-4.008,11.905-10.477,13.978-18.218C195.937,78.995,194.874,70.91,190.867,63.97z M179.375,82.853
			c-1.037,3.871-3.52,7.106-6.989,9.109c-3.471,2.003-7.513,2.535-11.382,1.498c-7.989-2.141-12.747-10.382-10.607-18.372
			c1.794-6.694,7.87-11.12,14.493-11.12c1.281,0,2.583,0.166,3.878,0.513c0,0,0,0,0.001,0c3.87,1.037,7.104,3.519,9.108,6.989
			C179.88,74.94,180.412,78.982,179.375,82.853z"/>
	</g>
</g>
<g>
	<g>
		<path d="M259.584,73.287c-15.975-4.283-32.461,5.235-36.742,21.215c-4.281,15.979,5.235,32.462,21.213,36.744
			c2.591,0.694,5.194,1.025,7.758,1.025c13.243,0,25.396-8.852,28.984-22.24C285.078,94.052,275.562,77.569,259.584,73.287z
			 M266.309,106.148c-2.142,7.99-10.386,12.748-18.371,10.608c-7.989-2.141-12.747-10.382-10.607-18.372
			c1.794-6.695,7.87-11.121,14.493-11.121c1.281,0,2.583,0.166,3.878,0.513C263.69,89.917,268.448,98.159,266.309,106.148z"/>
	</g>
</g>
<g>
	<g>
		<path d="M149.357,136.93c-7.744-2.074-15.826-1.01-22.765,2.997c-6.94,4.007-11.904,10.477-13.978,18.217
			c-2.074,7.741-1.011,15.826,2.996,22.766c4.007,6.94,10.476,11.904,18.216,13.979c2.592,0.694,5.193,1.025,7.758,1.025
			c13.243,0,25.397-8.853,28.985-22.241C174.852,157.695,165.335,141.212,149.357,136.93z M156.082,169.792
			c-2.142,7.989-10.386,12.749-18.372,10.608c-3.87-1.037-7.104-3.519-9.108-6.989c-2.003-3.47-2.535-7.513-1.498-11.383
			s3.52-7.105,6.989-9.108c2.312-1.335,4.876-2.016,7.476-2.016c1.303,0,2.614,0.171,3.906,0.518
			C153.464,153.561,158.222,161.802,156.082,169.792z"/>
	</g>
</g>
<g>
	<g>
		<path d="M236.291,160.225c-15.979-4.279-32.462,5.236-36.743,21.215c-4.281,15.979,5.235,32.462,21.213,36.744
			c2.585,0.692,5.208,1.035,7.813,1.035c5.198,0,10.329-1.363,14.951-4.032c6.94-4.007,11.904-10.477,13.978-18.217
			C261.784,180.991,252.269,164.507,236.291,160.225z M243.015,193.087c-1.037,3.87-3.52,7.105-6.989,9.108
			c-3.471,2.003-7.513,2.534-11.382,1.498c-7.989-2.141-12.747-10.382-10.607-18.372c1.794-6.694,7.871-11.12,14.494-11.12
			c1.281,0,2.583,0.166,3.879,0.513h-0.001C240.396,176.855,245.155,185.098,243.015,193.087z"/>
	</g>
</g>
<g>
</g>
<g>
</g>
<g>
</g>
<g>
</g>
<g>
</g>
<g>
</g>
<g>
</g>
<g>
</g>
<g>
</g>
<g>
</g>
<g>
</g>
<g>
</g>
<g>
</g>
<g>
</g>
<g>
</g>
</svg>
