<?xml version="1.0" encoding="iso-8859-1"?>
<!-- Generator: Adobe Illustrator 19.0.0, SVG Export Plug-In . SVG Version: 6.00 Build 0)  -->
<svg version="1.1" id="Capa_1" xmlns="http://www.w3.org/2000/svg" xmlns:xlink="http://www.w3.org/1999/xlink" x="0px" y="0px"
	 viewBox="0 0 511.997 511.997" style="enable-background:new 0 0 511.997 511.997;" xml:space="preserve">
<g>
	<g>
		<g>
			<circle cx="280.429" cy="152.573" r="7.202"/>
			<path d="M477.457,167.92c4.143,0,7.5-3.358,7.5-7.5v-7.847c0-4.142-3.357-7.5-7.5-7.5s-7.5,3.358-7.5,7.5v7.847
				C469.957,164.562,473.315,167.92,477.457,167.92z"/>
			<circle cx="252.114" cy="159.775" r="7.202"/>
			<path d="M511.997,156.517c0-11.041-4.628-21.697-12.697-29.238c-8.184-7.648-18.882-11.443-30.087-10.679
				c-19.247,1.305-35.172,16.756-37.044,35.939c-0.541,5.538,0.037,10.986,1.717,16.207c-15.342,26.492-21.703,52.828-24.337,70.374
				c-15.507-3.946-32.125-4.444-47.902-1.437c2.265-10.987,6.582-25.991,14.749-41.17c21.55-0.591,38.898-18.305,38.898-39.996
				c0-11.04-4.628-21.697-12.696-29.237c-8.182-7.647-18.863-11.438-30.082-10.68c-19.248,1.302-35.176,16.752-37.049,35.938
				c-0.475,4.867-0.085,9.664,1.156,14.301c-5.043-10.823-11.356-21.068-18.887-30.6c-2.568-3.25-7.286-3.804-10.534-1.235
				c-3.25,2.568-3.804,7.285-1.235,10.535c9.757,12.349,17.26,26.006,22.332,40.631c-15.131,33.875-17.161,64.722-17.397,74.503
				c-0.027,1.126-0.52,2.183-1.389,2.976c-21.012,19.196-32.584,45.064-32.584,72.839c0,0.901,0.016,1.807,0.041,2.714
				c-10.615,2.233-18.86,7.709-27.493,13.449c-13.707,9.112-29.242,19.44-60.293,19.44c-8.803,0-17.427-0.752-25.808-2.19
				c59.688-5.19,106.676-55.424,106.676-116.435c0-52.388-42.621-95.008-95.009-95.008c-42.737,0-77.507,34.769-77.507,77.507
				c0,4.142,3.357,7.5,7.5,7.5s7.5-3.358,7.5-7.5c0-34.466,28.04-62.507,62.507-62.507c44.117,0,80.009,35.892,80.009,80.008
				c0,56.18-45.706,101.886-101.886,101.886c-17.165,0-33.817-3.313-49.515-9.833c-36.982-25.654-61.107-67.462-61.107-114.596
				c0-77.84,65.782-141.168,146.64-141.168c34.007,0,67.148,11.461,93.32,32.273c3.243,2.579,7.961,2.041,10.538-1.202
				c2.578-3.242,2.04-7.96-1.202-10.538c-28.815-22.914-65.273-35.533-102.656-35.533c-89.128,0-161.64,70.057-161.64,156.168
				c0,37.149,13.504,71.303,36.007,98.141c-32.4,13.042-56.636,42.155-63.103,76.93c-1.439,7.745,0.623,15.66,5.658,21.718
				c5.034,6.057,12.439,9.531,20.316,9.531h23.424c4.143,0,7.5-3.358,7.5-7.5c0-4.142-3.357-7.5-7.5-7.5H26.422
				c-3.404,0-6.605-1.501-8.781-4.12c-2.177-2.618-3.068-6.04-2.445-9.387c5.886-31.659,29.004-57.824,59.431-67.748
				c6.206,6.029,12.919,11.568,20.067,16.561c0.498,0.458,1.064,0.852,1.694,1.169c26.281,17.867,58.291,28.373,92.797,28.373
				c35.582,0,53.888-12.17,68.597-21.948c9.578-6.367,17.143-11.397,27.52-11.944c0.065-0.003,0.127-0.015,0.191-0.02
				c0.061-0.005,0.121-0.003,0.182-0.01c0.063-0.007,0.122-0.02,0.184-0.029c0.136-0.017,0.271-0.038,0.404-0.062
				c0.115-0.021,0.228-0.044,0.341-0.07c0.132-0.031,0.262-0.064,0.391-0.102c0.112-0.032,0.222-0.067,0.331-0.104
				c0.123-0.042,0.244-0.087,0.364-0.135c0.111-0.044,0.22-0.091,0.328-0.14c0.112-0.051,0.223-0.105,0.332-0.162
				c0.108-0.056,0.215-0.114,0.32-0.176c0.104-0.06,0.205-0.123,0.305-0.188c0.104-0.067,0.206-0.136,0.305-0.208
				c0.095-0.069,0.188-0.139,0.28-0.212c0.097-0.077,0.191-0.155,0.284-0.237c0.089-0.078,0.175-0.158,0.26-0.24
				c0.087-0.084,0.172-0.17,0.255-0.258c0.082-0.087,0.162-0.177,0.24-0.268c0.077-0.09,0.152-0.182,0.225-0.276
				c0.075-0.097,0.147-0.195,0.218-0.295c0.067-0.096,0.132-0.192,0.195-0.291c0.066-0.105,0.13-0.211,0.191-0.319
				c0.057-0.101,0.113-0.204,0.165-0.308c0.056-0.111,0.109-0.223,0.16-0.336c0.048-0.108,0.094-0.218,0.137-0.329
				c0.044-0.113,0.085-0.228,0.124-0.344c0.039-0.117,0.075-0.235,0.109-0.355c0.032-0.114,0.061-0.228,0.087-0.344
				c0.029-0.127,0.055-0.254,0.077-0.383c0.02-0.112,0.036-0.225,0.051-0.339c0.017-0.136,0.031-0.272,0.041-0.41
				c0.008-0.112,0.014-0.223,0.017-0.336c0.004-0.141,0.003-0.282-0.001-0.424c-0.002-0.06,0.003-0.118,0-0.178
				c-0.003-0.059-0.013-0.115-0.018-0.173c-0.005-0.067-0.004-0.133-0.01-0.201c-0.29-2.815-0.438-5.659-0.438-8.453
				c0-23.51,9.838-45.445,27.7-61.764c3.858-3.523,6.144-8.513,6.269-13.69c0.223-9.236,2.18-38.862,17.129-71.039
				c0.01-0.02,0.018-0.041,0.028-0.062c2.219-4.773,4.719-9.6,7.548-14.426c1.916-3.268,2.299-7.201,1.05-10.788
				c-1.193-3.432-1.616-7.041-1.256-10.725c1.169-11.974,11.113-21.617,23.132-22.43c7.023-0.473,13.714,1.895,18.827,6.673
				c5.119,4.784,7.939,11.275,7.939,18.278c0,13.791-11.22,25.011-25.043,25.011c-4.779,0-9.184,2.616-11.496,6.83
				c-10.466,19.086-15.347,37.954-17.598,50.421c-0.741,4.108,0.616,8.282,3.632,11.165c3.042,2.907,7.311,4.086,11.432,3.149
				c14.603-3.32,30.244-3.112,44.719,0.587c4.087,1.044,8.437,0.307,11.942-2.02c3.499-2.324,5.862-6.041,6.484-10.199
				c2.453-16.417,8.424-41.184,22.938-65.95c1.915-3.269,2.298-7.203,1.05-10.796c-1.192-3.431-1.615-7.036-1.255-10.718
				c1.168-11.974,11.111-21.617,23.128-22.432c7.035-0.476,13.718,1.893,18.831,6.673c5.12,4.784,7.94,11.276,7.94,18.279
				c0,13.791-11.22,25.011-25.044,25.011c-4.779,0-9.184,2.617-11.496,6.831c-17.81,32.478-19.844,64.341-20.043,73.335
				c-0.117,5.33,2.073,10.537,6.011,14.287c16.996,16.185,26.357,37.673,26.357,60.507c0,47.285-40.565,85.754-90.427,85.754H85.792
				c-4.143,0-7.5,3.358-7.5,7.5c0,4.142,3.357,7.5,7.5,7.5h296.563c58.133,0,105.427-45.198,105.427-100.754
				c0-26.98-11.014-52.326-31.012-71.369c-0.889-0.846-1.384-1.975-1.359-3.094c0.179-8.046,1.986-36.349,17.688-65.512
				C494.649,195.921,511.997,178.207,511.997,156.517z"/>
			<path d="M389.772,309.946c6.621,0,12.917-2.867,17.274-7.866c2.722-3.122,2.397-7.86-0.726-10.582
				c-3.122-2.722-7.861-2.397-10.581,0.726c-1.508,1.73-3.684,2.722-5.968,2.722s-4.46-0.992-5.968-2.722
				c-2.72-3.122-7.459-3.448-10.581-0.726c-3.123,2.722-3.447,7.46-0.726,10.582C376.855,307.079,383.151,309.946,389.772,309.946z"
				/>
			<path d="M380.755,167.92c4.143,0,7.5-3.358,7.5-7.5v-7.847c0-4.142-3.357-7.5-7.5-7.5s-7.5,3.358-7.5,7.5v7.847
				C373.255,164.562,376.612,167.92,380.755,167.92z"/>
			<circle cx="157.022" cy="292.61" r="7.202"/>
			<circle cx="228.681" cy="135.611" r="7.202"/>
			<circle cx="137.498" cy="321.952" r="7.202"/>
			<circle cx="73.59" cy="188.031" r="7.202"/>
			<circle cx="114.403" cy="297.152" r="7.202"/>
		</g>
	</g>
</g>
<g>
</g>
<g>
</g>
<g>
</g>
<g>
</g>
<g>
</g>
<g>
</g>
<g>
</g>
<g>
</g>
<g>
</g>
<g>
</g>
<g>
</g>
<g>
</g>
<g>
</g>
<g>
</g>
<g>
</g>
</svg>
