<?xml version="1.0" standalone="no"?>
<!DOCTYPE svg PUBLIC "-//W3C//DTD SVG 20010904//EN"
 "http://www.w3.org/TR/2001/REC-SVG-20010904/DTD/svg10.dtd">
<svg version="1.0" xmlns="http://www.w3.org/2000/svg"
 width="512.000000pt" height="512.000000pt" viewBox="0 0 512.000000 512.000000"
 preserveAspectRatio="xMidYMid meet">

<g transform="translate(0.000000,512.000000) scale(0.100000,-0.100000)"
fill="#000000" stroke="none">
<path d="M3993 4739 c-17 -11 -41 -39 -52 -63 -20 -41 -21 -57 -21 -591 l0
-548 -82 -211 c-78 -202 -141 -355 -206 -496 l-29 -65 -12 45 c-109 403 -329
734 -611 915 -250 162 -529 235 -895 235 -537 0 -973 -167 -1306 -499 -230
-231 -369 -488 -435 -807 -37 -177 -40 -423 -6 -589 89 -446 347 -795 742
-1004 51 -27 88 -51 84 -53 -5 -3 -45 -17 -89 -31 -808 -260 -992 -321 -1011
-335 -30 -21 -64 -89 -64 -127 0 -46 38 -112 78 -137 l37 -23 1660 0 1660 0
86 22 c166 42 291 115 405 236 87 91 147 193 189 322 17 55 130 445 250 866
l218 766 141 84 c179 106 275 196 330 311 88 182 87 375 -2 558 -46 95 -158
211 -249 259 -35 17 -63 38 -63 44 0 7 14 91 30 187 36 210 36 221 8 272 -33
59 -76 81 -147 76 -112 -8 -138 -51 -175 -293 -32 -203 -36 -215 -74 -215 -16
0 -51 -7 -78 -15 -27 -8 -52 -15 -56 -15 -5 0 -8 186 -8 413 l0 412 -23 38
c-34 56 -72 77 -137 77 -38 0 -65 -7 -87 -21z m-1926 -1694 c215 -41 394 -134
544 -284 149 -149 243 -330 284 -544 43 -227 -9 -546 -103 -628 -102 -90 -262
-170 -381 -190 -36 -7 -104 -25 -150 -40 -46 -16 -86 -27 -88 -25 -2 2 14 15
36 29 101 67 220 193 281 297 65 112 92 201 97 320 11 220 -61 412 -208 559
-130 131 -275 191 -480 199 -148 5 -212 -6 -308 -54 -228 -114 -343 -414 -242
-630 37 -79 133 -179 205 -214 60 -28 132 -36 189 -21 86 25 189 124 203 196
9 50 -13 85 -76 120 -71 40 -100 82 -100 149 0 186 219 210 378 43 177 -188
157 -446 -52 -652 -128 -126 -259 -185 -416 -185 -292 0 -585 241 -667 550
-24 90 -24 290 1 385 27 106 106 260 174 340 119 142 283 239 467 278 94 20
311 21 412 2z"/>
</g>
</svg>
