<?xml version="1.0" standalone="no"?>
<!DOCTYPE svg PUBLIC "-//W3C//DTD SVG 20010904//EN"
 "http://www.w3.org/TR/2001/REC-SVG-20010904/DTD/svg10.dtd">
<svg version="1.0" xmlns="http://www.w3.org/2000/svg"
 width="512.000000pt" height="512.000000pt" viewBox="0 0 512.000000 512.000000"
 preserveAspectRatio="xMidYMid meet">

<g transform="translate(0.000000,512.000000) scale(0.100000,-0.100000)"
fill="#000000" stroke="none">
<path d="M1770 4455 c-504 -48 -751 -117 -986 -276 -448 -302 -713 -864 -773
-1638 -13 -160 -14 -418 -2 -480 17 -89 63 -121 237 -166 60 -16 111 -30 112
-31 2 -1 -57 -232 -132 -512 -77 -287 -136 -529 -136 -553 0 -53 27 -102 72
-129 30 -18 51 -20 243 -20 191 0 213 2 242 20 39 24 44 31 223 355 78 143
148 266 155 273 10 11 22 9 66 -8 30 -12 57 -25 61 -28 4 -4 -17 -100 -48
-212 -30 -113 -55 -224 -55 -248 -1 -51 25 -99 71 -129 32 -22 42 -23 244 -23
192 0 214 2 243 20 45 27 53 42 133 250 40 102 75 191 79 197 5 9 59 14 191
17 300 8 541 43 850 123 96 25 187 47 201 50 l25 5 64 -288 c52 -232 69 -293
88 -316 48 -57 56 -58 368 -58 274 0 288 1 321 21 18 12 42 38 53 60 19 36 20
60 20 408 l0 370 46 20 c25 11 52 22 61 23 14 3 25 -55 79 -401 67 -433 67
-433 134 -478 32 -23 38 -23 339 -23 288 0 308 1 339 20 45 28 72 76 72 130 0
32 -55 210 -188 610 l-189 565 80 75 c102 95 307 321 329 363 9 18 17 47 18
65 0 47 -63 355 -105 507 -68 249 -122 317 -258 323 -135 7 -290 -47 -535
-185 -74 -41 -135 -73 -137 -71 -1 1 -15 32 -30 68 -54 129 -181 367 -261 486
-226 340 -472 566 -773 715 -237 116 -366 140 -791 144 -216 3 -361 -1 -460
-10z"/>
</g>
</svg>
