<?xml version="1.0" encoding="iso-8859-1"?>
<!-- Generator: Adobe Illustrator 19.0.0, SVG Export Plug-In . SVG Version: 6.00 Build 0)  -->
<svg version="1.1" id="Capa_1" xmlns="http://www.w3.org/2000/svg" xmlns:xlink="http://www.w3.org/1999/xlink" x="0px" y="0px"
	 viewBox="0 0 512.001 512.001" style="enable-background:new 0 0 512.001 512.001;" xml:space="preserve">
<g>
	<g>
		<path d="M506.732,284.351c-14.011-21.3-37.351-52.459-68.978-79.941c-37.419-32.517-77.482-52.3-119.071-58.799
			c-61.951-9.678-126.295,10.271-191.458,59.298v-57.454c0-16.126-6.986-31.435-19.17-42.001
			C95.873,94.889,79.73,90.137,63.766,92.418l-29.797,4.256C14.604,99.441,0,116.279,0,135.841v28.299
			c0,4.205,1.731,8.285,4.75,11.195c1.046,1.008,2.211,1.837,3.453,2.502l-0.058,5.644c-0.112,10.932,7.217,20.42,17.824,23.072
			l14.289,3.572c0.237,0.06,0.431,0.244,0.45,0.428c1.38,13.555,6.189,36.49,15.552,60.213
			c12.247,31.04,29.222,56.704,50.453,76.372l-1.792,17.922h-1.229c-12.975,0-24.473,7.784-29.292,19.832l-9.985,24.964
			c-0.924,2.311-0.642,4.929,0.753,6.99c1.396,2.061,3.723,3.295,6.211,3.295h52.679c14.987,0,27.997-10.665,30.937-25.361
			l3.079-15.395c21.921,8.632,59.733,18.729,116.729,18.729c16.062,0,33.677-0.818,52.858-2.681l-6.359,14.132
			c-1.044,2.32-0.84,5.013,0.542,7.149c1.382,2.136,3.753,3.428,6.298,3.428h64.127c12.977,0,23.533-10.556,23.533-23.532v-17.248
			c9.629-2.953,16.598-5.837,20.708-8.578c10.283-6.855,20.034-17.839,29.014-32.67c7.225-1.586,14.54-3.272,21.953-5.071
			c10.31-2.502,18.439-9.558,22.302-19.36C513.589,304.009,512.451,293.046,506.732,284.351z M342.798,166.67
			c22.023,6.901,49.25,19.644,78.124,43.012l-2.655,1.859c-3.394,2.375-4.219,7.052-1.844,10.445c1.459,2.084,3.786,3.2,6.151,3.2
			c1.484,0,2.985-0.44,4.294-1.356l5.833-4.083c18.8,16.918,38.078,38.496,56.895,66.001c-31.954,8.194-61.939,14.283-89.803,18.245
			l-11.191-53.377l13.665-9.565c3.394-2.375,4.219-7.052,1.844-10.445c-2.375-3.393-7.051-4.22-10.445-1.843l-13.542,9.479
			l-44.741-29.546L342.798,166.67z M384.873,305.936c-26.385,3.108-50.737,4.2-72.906,3.248
			c-30.605-1.316-57.163-6.529-79.339-15.506l27.235-49.93l66.245-23.201l47.429,31.321L384.873,305.936z M316.366,160.432
			c3.646,0.57,7.625,1.32,11.894,2.295l-7.744,43.886l-61.815,21.65l-27.384-61.473
			C260.192,158.243,288.598,156.093,316.366,160.432z M55.631,209.032c-0.658-6.46-5.374-11.87-11.733-13.46L29.609,192
			c-3.846-0.961-6.503-4.401-6.462-8.365l0.044-4.325c15.401-0.898,33.405-3.091,43.777-8.277c3.704-1.852,5.206-6.357,3.354-10.062
			c-1.852-3.705-6.354-5.207-10.063-3.354c-7.401,3.701-23.721,6.268-44.771,7.042c-0.052,0.001-0.189,0.008-0.327-0.124
			c-0.16-0.154-0.16-0.335-0.16-0.394v-28.299c0-12.145,9.066-22.599,21.09-24.317l29.797-4.256
			c11.657-1.671,23.443,1.804,32.339,9.519c8.896,7.714,13.997,18.893,13.997,30.668v72.801c0,0.061,0.008,0.12,0.009,0.18
			c0.001,0.044-0.004,0.088-0.002,0.132c0.066,1.586,1.521,29.154,21.913,59.12l-2.015,0.672
			c-11.775,3.925-20.182,14.44-21.416,26.79l-2.076,20.757C63.291,279.296,55.941,212.07,55.631,209.032z M150.857,338.976
			l-10.572,52.863c-1.541,7.707-8.365,13.302-16.228,13.302h-41.6l5.871-14.678c2.527-6.319,8.558-10.402,15.364-10.402h8.016
			c3.854,0,7.079-2.92,7.463-6.754l6.467-64.663c0.647-6.478,5.056-11.992,11.232-14.052l6.939-2.313
			c6.399,7.426,14.088,14.799,23.338,21.767c9.869,7.433,20.884,13.867,32.948,19.338c-11.365,7.343-26.052,9.202-34.746,9.611
			l0.216-1.078c0.813-4.062-1.822-8.013-5.884-8.825C155.613,332.277,151.669,334.914,150.857,338.976z M161.065,364.423
			l1.263-6.316c11.124-0.124,36.903-2.265,53.754-18.263c19.115,6.813,40.513,11.474,64.08,13.914
			c12.995,1.346,26.673,2.017,41.012,2.017c12.667,0,25.865-0.538,39.547-1.585v10.885c-10.432,0.333-19.975,5.834-25.54,14.497
			C242.706,389.934,187.682,375.424,161.065,364.423z M400.802,396.609c-0.001,4.704-3.828,8.531-8.533,8.531h-52.527l6.894-15.322
			c2.668-5.928,8.592-9.758,15.092-9.758h6.494c4.143,0,7.5-3.357,7.5-7.5v-19.711c8.195-0.831,16.553-1.834,25.08-3.02V396.609z
			 M428.188,358.303c-1.145,0.763-4.451,2.634-12.386,5.306v-16.032c9.343-1.492,18.868-3.181,28.582-5.08
			C439.084,349.327,433.612,354.687,428.188,358.303z M495.822,308.183c-2.05,5.199-6.381,8.947-11.883,10.283
			c-78.987,19.171-146.905,26.037-201.863,20.41c-43.605-4.466-79.122-16.768-105.566-36.562
			c-38.999-29.193-47.238-67.027-48.895-78.764c5.258-4.165,10.506-8.111,15.747-11.88c3.352,17.125,11.874,41.293,33.289,63.119
			c1.469,1.496,3.41,2.247,5.354,2.247c1.896,0,3.793-0.714,5.253-2.146c2.956-2.9,3.002-7.649,0.101-10.606
			c-21.783-22.201-28.395-47.108-30.344-62.007c20.169-13.219,40.184-23.477,59.991-30.75l29.295,65.763l-27.327,50.099
			c-3.068-1.603-6.051-3.279-8.913-5.054c-3.521-2.184-8.144-1.101-10.327,2.419c-2.183,3.52-1.101,8.144,2.419,10.327
			c31.714,19.676,73.711,29.514,125.631,29.514c47.971,0,104.441-8.428,169.044-25.232
			C497.281,302.28,496.957,305.302,495.822,308.183z"/>
	</g>
</g>
<g>
	<g>
		<path d="M55.597,124.58c-4.143,0-7.5,3.358-7.5,7.5v8.016c0,4.142,3.357,7.5,7.5,7.5c4.143,0,7.5-3.358,7.5-7.5v-8.016
			C63.097,127.938,59.739,124.58,55.597,124.58z"/>
	</g>
</g>
<g>
</g>
<g>
</g>
<g>
</g>
<g>
</g>
<g>
</g>
<g>
</g>
<g>
</g>
<g>
</g>
<g>
</g>
<g>
</g>
<g>
</g>
<g>
</g>
<g>
</g>
<g>
</g>
<g>
</g>
</svg>
